<?xml version="1.0" encoding="UTF-8" standalone="no"?>
<!-- Created with Inkscape (http://www.inkscape.org/) -->

<svg
   version="1.1"
   id="svg1"
   width="265.35333"
   height="70.610664"
   viewBox="0 0 265.35333 70.610664"
   sodipodi:docname="Test.pdf"
   xmlns:inkscape="http://www.inkscape.org/namespaces/inkscape"
   xmlns:sodipodi="http://sodipodi.sourceforge.net/DTD/sodipodi-0.dtd"
   xmlns="http://www.w3.org/2000/svg"
   xmlns:svg="http://www.w3.org/2000/svg">
  <defs
     id="defs1" />
  <sodipodi:namedview
     id="namedview1"
     pagecolor="#ffffff"
     bordercolor="#000000"
     borderopacity="0.25"
     inkscape:showpageshadow="2"
     inkscape:pageopacity="0.0"
     inkscape:pagecheckerboard="0"
     inkscape:deskcolor="#d1d1d1">
    <inkscape:page
       x="0"
       y="0"
       inkscape:label="1"
       id="page1"
       width="265.35333"
       height="70.610664"
       margin="0"
       bleed="0" />
  </sodipodi:namedview>
  <g
     id="g1"
     inkscape:groupmode="layer"
     inkscape:label="1">
    <g
       id="g2"
       aria-label="F=ZwithZ&#10;Min&#10;=([A]Y∧⟨B⟩X)∨[B]Z&#10;Y&#10;Max&#10;=⟨B⟩X∧⟨Act⟩Y&#10;X&#10;Max&#10;=⟨B⟩tt∧⟨A⟩Y∧[B]X"
       transform="matrix(1.3333333,0,0,1.3333333,0,15.213333)">
      <path
         id="path2"
         d="M 3.0234375,-3.2332422 H 3.984375 c 0.75,0 0.8320312,0.1523438 0.8320312,0.4453125 0,0.070312 0,0.1875 -0.070312,0.4921875 -0.023437,0.046875 -0.035156,0.082031 -0.035156,0.1054688 0,0.082031 0.058594,0.1171875 0.1171875,0.1171875 0.1054687,0 0.1054687,-0.023437 0.1523437,-0.2109375 l 0.5507813,-2.15625 c 0.023437,-0.1054688 0.023437,-0.1289063 0.023437,-0.1640625 0,-0.011719 -0.011719,-0.1054688 -0.1171875,-0.1054688 -0.09375,0 -0.1054688,0.046875 -0.1523438,0.2109375 -0.1992187,0.7734375 -0.4335937,0.9492188 -1.2773437,0.9492188 H 3.09375 l 0.6445313,-2.53125 c 0.082031,-0.3398438 0.09375,-0.3867188 0.5390624,-0.3867188 h 1.3125 c 1.21875,0 1.453125,0.328125 1.453125,1.1015625 0,0.2226563 0,0.2695313 -0.035156,0.5390625 -0.011719,0.1289063 -0.011719,0.140625 -0.011719,0.1757813 0,0.046875 0.023437,0.1171875 0.1171875,0.1171875 0.1054688,0 0.1171875,-0.058594 0.140625,-0.2460938 L 7.453125,-6.5027734 C 7.4765625,-6.7723047 7.4296875,-6.7723047 7.1835937,-6.7723047 H 2.296875 c -0.1992187,0 -0.2929687,0 -0.2929687,0.1992188 0,0.1054687 0.09375,0.1054687 0.28125,0.1054687 0.3632812,0 0.6445312,0 0.6445312,0.1875 0,0.035156 0,0.058594 -0.046875,0.234375 l -1.3242188,5.27343751 c -0.09375,0.38671875 -0.1171875,0.46875 -0.9023437,0.46875 -0.1640625,0 -0.28125,0 -0.28125,0.1875 0,0.1171875 0.12890625,0.1171875 0.15234375,0.1171875 0.29296875,0 1.03124995,-0.03515625 1.31249995,-0.03515625 0.3281251,0 1.1601563,0.03515625 1.4882813,0.03515625 0.09375,0 0.2109375,0 0.2109375,-0.1875 0,-0.0820313 -0.058594,-0.10546875 -0.058594,-0.1171875 -0.035156,0 -0.058594,0 -0.28125,0 -0.2226563,0 -0.2695313,0 -0.515625,-0.0234375 -0.2929688,-0.0351563 -0.328125,-0.0703125 -0.328125,-0.19921875 0,-0.0234375 0,-0.0820313 0.046875,-0.234375 z m 0,0"
         style="fill:#000000;fill-opacity:1;fill-rule:nonzero;stroke:none" />
      <path
         id="path3"
         d="m 17.405273,-3.2566797 c 0.152344,0 0.339844,0 0.339844,-0.1992187 0,-0.1992188 -0.1875,-0.1992188 -0.328125,-0.1992188 h -5.964844 c -0.140625,0 -0.328125,0 -0.328125,0.1992188 0,0.1992187 0.1875,0.1992187 0.339844,0.1992187 z m 0.01172,1.9335938 c 0.140625,0 0.328125,0 0.328125,-0.1992188 0,-0.1992187 -0.1875,-0.1992187 -0.339844,-0.1992187 h -5.941406 c -0.152344,0 -0.339844,0 -0.339844,0.1992187 0,0.1992188 0.1875,0.1992188 0.328125,0.1992188 z m 0,0"
         style="fill:#000000;fill-opacity:1;fill-rule:nonzero;stroke:none" />
      <path
         id="path4"
         d="m 28.242187,-6.5613672 c 0.01172,-0.046875 0.03516,-0.09375 0.03516,-0.1523437 0,-0.09375 -0.05859,-0.09375 -0.257813,-0.09375 h -4.195312 c -0.246094,0 -0.257813,0.011719 -0.316407,0.1992187 l -0.539062,1.7929688 c -0.02344,0.058594 -0.03516,0.1289062 -0.03516,0.140625 0,0.011719 0,0.1171875 0.117187,0.1171875 0.09375,0 0.117188,-0.070312 0.128906,-0.1054688 0.386719,-1.171875 0.902344,-1.828125 2.449219,-1.828125 h 1.628906 l -5.566406,6.22265626 c 0,0.0117188 -0.04687,0.15234375 -0.04687,0.17578125 0,0.09375 0.07031,0.09375 0.257813,0.09375 h 4.324218 c 0.246094,0 0.257813,-0.01171875 0.316407,-0.19921875 l 0.703125,-2.20312496 c 0.01172,-0.035156 0.03516,-0.1054688 0.03516,-0.1523438 0,-0.046875 -0.03516,-0.1054687 -0.128906,-0.1054687 -0.08203,0 -0.09375,0.035156 -0.164063,0.2460937 -0.433594,1.359375 -0.914062,2.07421876 -2.613281,2.07421876 h -1.699219 z m 0,0"
         style="fill:#000000;fill-opacity:1;fill-rule:nonzero;stroke:none" />
      <path
         id="path5"
         d="m 48.928711,-3.3504297 c 0.175781,-0.4921875 0.492187,-0.6210937 0.84375,-0.6328125 v -0.3046875 c -0.222656,0.011719 -0.515625,0.023437 -0.726563,0.023437 -0.292968,0 -0.738281,-0.023437 -0.9375,-0.023437 v 0.3046875 c 0.363282,0.011719 0.585938,0.1875 0.585938,0.4804688 0,0.058594 0,0.082031 -0.04687,0.2109375 l -0.914063,2.54296871 -0.984375,-2.77734371 c -0.03516,-0.1171875 -0.04687,-0.140625 -0.04687,-0.1875 0,-0.2695313 0.386719,-0.2695313 0.585938,-0.2695313 v -0.3046875 c -0.292969,0 -0.796875,0.023437 -1.03125,0.023437 -0.304688,0 -0.597656,-0.011719 -0.890625,-0.023437 v 0.3046875 c 0.363281,0 0.527344,0.023437 0.621094,0.1523438 0.05859,0.058594 0.164062,0.3515625 0.234375,0.5390625 l -0.855469,2.41406246 -0.949219,-2.66015626 c -0.04687,-0.1171875 -0.04687,-0.140625 -0.04687,-0.1757812 0,-0.2695313 0.386719,-0.2695313 0.585938,-0.2695313 v -0.3046875 c -0.292969,0 -0.855469,0.023437 -1.089844,0.023437 -0.03516,0 -0.5625,-0.011719 -0.925781,-0.023437 v 0.3046875 c 0.503906,0 0.621093,0.035156 0.738281,0.3515625 l 1.253906,3.52734376 c 0.05859,0.140625 0.08203,0.2109375 0.210938,0.2109375 0.128906,0 0.152343,-0.05859375 0.199218,-0.19921875 l 1.007813,-2.81250001 1.019531,2.82421876 c 0.03516,0.1171875 0.07031,0.1875 0.199219,0.1875 0.128906,0 0.152344,-0.08203125 0.199219,-0.1875 z m 2.789062,-1.0546875 -1.394531,0.1171875 v 0.3046875 c 0.65625,0 0.738281,0.058594 0.738281,0.5507813 v 2.67187496 c 0,0.45703125 -0.105468,0.45703125 -0.773437,0.45703125 v 0.3046875 c 0.316406,-0.01171875 0.855469,-0.03515625 1.101562,-0.03515625 0.339844,0 0.691407,0.0234375 1.03125,0.03515625 v -0.3046875 c -0.65625,0 -0.703125,-0.0585938 -0.703125,-0.4453125 z m 0.04687,-1.734375 c 0,-0.3164062 -0.246093,-0.5273437 -0.527343,-0.5273437 -0.316407,0 -0.527344,0.2695312 -0.527344,0.5273437 0,0.2695313 0.210937,0.5273438 0.527344,0.5273438 0.28125,0 0.527343,-0.1992188 0.527343,-0.5273438 z m 2.686524,2.15625 h 1.429687 v -0.3046875 h -1.429687 v -1.8398437 h -0.246094 c -0.01172,0.8203125 -0.316406,1.8867187 -1.289062,1.921875 v 0.2226562 h 0.84375 v 2.7539063 c 0,1.21874996 0.925781,1.33593746 1.289062,1.33593746 0.703125,0 0.984375,-0.703125 0.984375,-1.33593746 v -0.5742188 h -0.246094 v 0.5507813 c 0,0.73828121 -0.304687,1.11328121 -0.667968,1.11328121 -0.667969,0 -0.667969,-0.90234371 -0.667969,-1.07812501 z m 3.251953,3.22265626 c 0,0.45703125 -0.117188,0.45703125 -0.785156,0.45703125 v 0.3046875 c 0.351562,-0.01171875 0.855468,-0.03515625 1.125,-0.03515625 0.257812,0 0.785156,0.0234375 1.113281,0.03515625 v -0.3046875 c -0.65625,0 -0.773438,0 -0.773438,-0.45703125 V -2.5887109 c 0,-1.03125 0.714844,-1.59375 1.347657,-1.59375 0.621093,0 0.738281,0.5390625 0.738281,1.1015625 v 2.32031246 c 0,0.45703125 -0.117188,0.45703125 -0.773438,0.45703125 v 0.3046875 c 0.339844,-0.01171875 0.855469,-0.03515625 1.125,-0.03515625 0.257813,0 0.773438,0.0234375 1.113282,0.03515625 v -0.3046875 c -0.515625,0 -0.773438,0 -0.785157,-0.3046875 V -2.5066797 c 0,-0.8554687 0,-1.171875 -0.304687,-1.5234375 -0.140625,-0.1757812 -0.46875,-0.375 -1.042969,-0.375 -0.84375,0 -1.277344,0.5976563 -1.441406,0.984375 v -3.4921875 l -1.441406,0.1054688 v 0.3164062 c 0.703125,0 0.785156,0.070312 0.785156,0.5507813 z m 0,0"
         style="fill:#000000;fill-opacity:1;fill-rule:nonzero;stroke:none" />
      <path
         id="path6"
         d="m 83.475586,-6.5613672 c 0.01172,-0.046875 0.03516,-0.09375 0.03516,-0.1523437 0,-0.09375 -0.05859,-0.09375 -0.257812,-0.09375 h -4.195313 c -0.246094,0 -0.257812,0.011719 -0.316406,0.1992187 l -0.539063,1.7929688 c -0.02344,0.058594 -0.03516,0.1289062 -0.03516,0.140625 0,0.011719 0,0.1171875 0.117188,0.1171875 0.09375,0 0.117187,-0.070312 0.128906,-0.1054688 0.386719,-1.171875 0.902344,-1.828125 2.449219,-1.828125 h 1.628906 l -5.566406,6.22265626 c 0,0.0117188 -0.04687,0.15234375 -0.04687,0.17578125 0,0.09375 0.07031,0.09375 0.257812,0.09375 h 4.324219 c 0.246094,0 0.257812,-0.01171875 0.316406,-0.19921875 l 0.703125,-2.20312496 c 0.01172,-0.035156 0.03516,-0.1054688 0.03516,-0.1523438 0,-0.046875 -0.03516,-0.1054687 -0.128906,-0.1054687 -0.08203,0 -0.09375,0.035156 -0.164062,0.2460937 -0.433594,1.359375 -0.914063,2.07421876 -2.613282,2.07421876 H 77.90918 Z m 0,0"
         style="fill:#000000;fill-opacity:1;fill-rule:nonzero;stroke:none" />
      <path
         id="path7"
         d="m 88.508789,-10.252773 c -0.07031,-0.152344 -0.117187,-0.152344 -0.269531,-0.152344 h -1.21875 v 0.246094 h 0.164062 c 0.539063,0 0.550782,0.07031 0.550782,0.3164058 v 3.4453125 c 0,0.1875 0,0.5039063 -0.714844,0.5039063 v 0.2460937 c 0.28125,-0.023437 0.5625,-0.023437 0.84375,-0.023437 0.292969,0 0.574219,0 0.855469,0.023437 v -0.2460937 c -0.714844,0 -0.714844,-0.3164063 -0.714844,-0.5039063 v -3.6796873 l 1.816406,4.2656248 c 0.03516,0.082031 0.07031,0.1640625 0.175781,0.1640625 0.04687,0 0.105469,-0.023437 0.164063,-0.140625 l 1.839844,-4.3593753 h 0.01172 v 3.9375003 c 0,0.234375 -0.01172,0.3164063 -0.550781,0.3164063 h -0.164062 v 0.2460937 c 0.328125,-0.011719 0.726562,-0.023437 1.007812,-0.023437 0.28125,0 0.679688,0.011719 1.007813,0.023437 v -0.2460937 h -0.164063 c -0.539062,0 -0.550781,-0.070312 -0.550781,-0.3164063 v -3.6328125 c 0,-0.2343748 0.01172,-0.3164058 0.550781,-0.3164058 h 0.164063 v -0.246094 h -1.207032 c -0.140625,0 -0.210937,0 -0.257812,0.140625 l -1.675781,3.9492186 z m 6.720703,0.3046871 c 0,-0.1992191 -0.175781,-0.3984371 -0.410156,-0.3984371 -0.210938,0 -0.398438,0.164062 -0.398438,0.3984371 0,0.2460937 0.199219,0.3984375 0.398438,0.3984375 0.222656,0 0.410156,-0.1640625 0.410156,-0.3984375 z m -1.066406,1.3007812 v 0.2578125 c 0.445312,0 0.503906,0.035156 0.503906,0.375 v 1.8164063 c 0,0.3046875 -0.07031,0.3046875 -0.527344,0.3046875 v 0.2460937 c 0.02344,0 0.503907,-0.023437 0.785157,-0.023437 0.246093,0 0.492187,0 0.738281,0.023437 v -0.2460937 c -0.398438,0 -0.46875,0 -0.46875,-0.2929688 v -2.53125 z m 5.431641,0.890625 c 0,-0.609375 -0.292969,-0.9609375 -1.042969,-0.9609375 -0.574219,0 -0.9375,0.3046875 -1.136719,0.6679688 v -0.6679688 l -1.03125,0.070312 v 0.2578125 c 0.46875,0 0.527344,0.046875 0.527344,0.3867188 v 1.8046875 c 0,0.3046875 -0.07031,0.3046875 -0.527344,0.3046875 v 0.2460937 c 0.01172,0 0.503906,-0.023437 0.796875,-0.023437 0.257813,0 0.738281,0.011719 0.796875,0.023437 v -0.2460937 c -0.445312,0 -0.515625,0 -0.515625,-0.3046875 v -1.2539063 c 0,-0.7382812 0.574219,-1.078125 1.03125,-1.078125 0.492188,0 0.550781,0.3867188 0.550781,0.7382813 v 1.59375 c 0,0.3046875 -0.07031,0.3046875 -0.515625,0.3046875 v 0.2460937 c 0.01172,0 0.503907,-0.023437 0.796875,-0.023437 0.257813,0 0.738285,0.011719 0.796875,0.023437 v -0.2460937 c -0.457031,0 -0.527343,0 -0.527343,-0.3046875 z m 0,0"
         style="fill:#000000;fill-opacity:1;fill-rule:nonzero;stroke:none" />
      <path
         id="path8"
         d="m 96.46582,-3.2566797 c 0.152344,0 0.339844,0 0.339844,-0.1992187 0,-0.1992188 -0.1875,-0.1992188 -0.328125,-0.1992188 h -5.964844 c -0.140625,0 -0.328125,0 -0.328125,0.1992188 0,0.1992187 0.1875,0.1992187 0.339844,0.1992187 z m 0.01172,1.9335938 c 0.140625,0 0.328125,0 0.328125,-0.1992188 0,-0.1992187 -0.1875,-0.1992187 -0.339844,-0.1992187 h -5.941406 c -0.152344,0 -0.339844,0 -0.339844,0.1992187 0,0.1992188 0.1875,0.1992188 0.328125,0.1992188 z m 9.99609,3.7148437 c 0,-0.035156 0,-0.046875 -0.16406,-0.2226562 -1.24219,-1.25390629 -1.57031,-3.12890629 -1.57031,-4.6640625 0,-1.7226563 0.38672,-3.4570313 1.60547,-4.7109375 0.1289,-0.1171875 0.1289,-0.1289063 0.1289,-0.1640625 0,-0.070312 -0.0352,-0.1054688 -0.0937,-0.1054688 -0.10547,0 -0.99609,0.6796875 -1.58203,1.9453125 -0.51562,1.1015625 -0.63281,2.203125 -0.63281,3.0351563 0,0.7851562 0.11719,1.99218746 0.65625,3.11718746 0.59766,1.21875004 1.45312,1.87500004 1.55859,1.87500004 0.0586,0 0.0937,-0.035156 0.0937,-0.1054688 z m 3.12305,0.1054688 V 2.0987891 h -0.97266 v -9.1757813 h 0.97266 v -0.3984375 h -1.37109 v 9.9726563 z m 0,0"
         style="fill:#000000;fill-opacity:1;fill-rule:nonzero;stroke:none" />
      <path
         id="path9"
         d="m 111.60352,-1.1473047 c -0.39844,0.66796876 -0.78516,0.80859376 -1.21875,0.84375001 -0.12891,0 -0.21094,0 -0.21094,0.19921875 0,0.05859375 0.0469,0.10546875 0.1289,0.10546875 0.26954,0 0.57422,-0.03515625 0.85547,-0.03515625 0.32813,0 0.67969,0.03515625 0.9961,0.03515625 0.0586,0 0.1875,0 0.1875,-0.1875 0,-0.1171875 -0.0937,-0.1171875 -0.16407,-0.1171875 -0.22265,-0.0234375 -0.45703,-0.10546875 -0.45703,-0.3515625 0,-0.1171875 0.0586,-0.234375 0.12891,-0.37500001 l 0.76172,-1.265625 h 2.49609 c 0.0234,0.1992188 0.16406,1.55859376 0.16406,1.66406251 0,0.29296875 -0.51562,0.328125 -0.71484,0.328125 -0.14062,0 -0.24609,0 -0.24609,0.19921875 0,0.10546875 0.1289,0.10546875 0.14062,0.10546875 0.41016,0 0.84375,-0.03515625 1.25391,-0.03515625 0.24609,0 0.86719,0.03515625 1.125,0.03515625 0.0586,0 0.17578,0 0.17578,-0.19921875 0,-0.10546875 -0.10547,-0.10546875 -0.23438,-0.10546875 -0.60937,0 -0.60937,-0.0703125 -0.64453,-0.36328125 l -0.60937,-6.22265626 c -0.0117,-0.1992187 -0.0117,-0.2460937 -0.1875,-0.2460937 -0.16406,0 -0.19922,0.070312 -0.25781,0.1757812 z m 1.19531,-1.4648437 1.96875,-3.28125 0.3164,3.28125 z m 0,0"
         style="fill:#000000;fill-opacity:1;fill-rule:nonzero;stroke:none" />
      <path
         id="path10"
         d="m 118.875,-7.4754297 h -1.35937 v 0.3984375 h 0.96093 v 9.1757813 h -0.96093 v 0.3984375 h 1.35937 z m 0,0"
         style="fill:#000000;fill-opacity:1;fill-rule:nonzero;stroke:none" />
      <path
         id="path11"
         d="m 126.00293,-5.6707422 0.14062,-0.140625 c 0.30469,-0.2929687 0.63282,-0.6328125 1.3125,-0.6796875 0.10547,-0.011719 0.19922,-0.011719 0.19922,-0.1875 0,-0.082031 -0.0586,-0.1289062 -0.1289,-0.1289062 -0.25782,0 -0.55078,0.035156 -0.82032,0.035156 -0.32812,0 -0.67968,-0.035156 -0.99609,-0.035156 -0.0586,0 -0.1875,0 -0.1875,0.1992187 0,0.1054688 0.0937,0.1171875 0.15234,0.1171875 0.0703,0 0.35157,0.011719 0.35157,0.2226563 0,0.1757812 -0.22266,0.4335937 -0.26953,0.4804687 l -2.3086,2.6601563 -1.08984,-2.953125 c -0.0703,-0.140625 -0.0703,-0.1640625 -0.0703,-0.1757813 0,-0.234375 0.49218,-0.234375 0.59765,-0.234375 0.12891,0 0.23438,0 0.23438,-0.1992187 0,-0.1171875 -0.11719,-0.1171875 -0.15235,-0.1171875 -0.28125,0 -0.97265,0.035156 -1.2539,0.035156 -0.2461,0 -0.86719,-0.035156 -1.11328,-0.035156 -0.0586,0 -0.1875,0 -0.1875,0.1992187 0,0.1171875 0.0937,0.1171875 0.22265,0.1171875 0.59766,0 0.64453,0.082031 0.72656,0.3398438 l 1.23047,3.2695312 c 0.0117,0.035156 0.0352,0.140625 0.0352,0.1757813 0,0.023437 -0.39844,1.6289062 -0.44531,1.80468746 -0.12891,0.55078125 -0.14063,0.5859375 -0.9375,0.59765625 -0.1875,0 -0.26953,0 -0.26953,0.19921875 0,0.10546875 0.11718,0.10546875 0.14062,0.10546875 0.28125,0 0.97266,-0.03515625 1.25391,-0.03515625 0.28125,0 0.99609,0.03515625 1.27734,0.03515625 0.0703,0 0.1875,0 0.1875,-0.19921875 0,-0.10546875 -0.082,-0.10546875 -0.28125,-0.10546875 -0.0117,0 -0.19922,0 -0.375,-0.0234375 -0.21094,-0.0234375 -0.26953,-0.0351563 -0.26953,-0.1640625 0,-0.0703125 0.0937,-0.41015625 0.14062,-0.62109371 l 0.35157,-1.40625 c 0.0469,-0.1875 0.0586,-0.2226563 0.14062,-0.3046875 z m 0,0"
         style="fill:#000000;fill-opacity:1;fill-rule:nonzero;stroke:none" />
      <path
         id="path12"
         d="m 133.81934,-5.7410547 c -0.082,-0.1757812 -0.14063,-0.2109375 -0.23438,-0.2109375 -0.12891,0 -0.16406,0.070312 -0.22266,0.2109375 l -2.47265,5.56640626 c -0.0586,0.12890625 -0.0703,0.140625 -0.0703,0.19921875 0,0.10546875 0.082,0.19921875 0.19921,0.19921875 0.0703,0 0.15235,-0.0234375 0.22266,-0.2109375 l 2.34375,-5.28515626 2.34375,5.28515626 c 0.082,0.2109375 0.1875,0.2109375 0.22266,0.2109375 0.11718,0 0.19922,-0.09375 0.19922,-0.19921875 0,-0.0234375 0,-0.046875 -0.0586,-0.1640625 z m 8.57226,-1.3476562 c 0.0469,-0.1171875 0.0469,-0.1289063 0.0469,-0.1875 0,-0.1054688 -0.0937,-0.1992188 -0.19922,-0.1992188 -0.0937,0 -0.16406,0.058594 -0.22266,0.234375 l -1.74609,4.5703125 c -0.0234,0.058594 -0.0469,0.1171875 -0.0469,0.1757813 0,0.035156 0,0.058594 0.0469,0.1757812 l 1.74609,4.5703125 c 0.0352,0.1054688 0.082,0.2460938 0.22266,0.2460938 0.10547,0 0.19922,-0.09375 0.19922,-0.1992188 0,-0.035156 0,-0.058594 -0.0469,-0.1640625 l -1.76953,-4.6289062 z m 0,0"
         style="fill:#000000;fill-opacity:1;fill-rule:nonzero;stroke:none" />
      <path
         id="path13"
         d="m 145.21289,-3.6433984 v -2.4492188 c 0,-0.328125 0.0117,-0.3984375 0.48047,-0.3984375 h 1.24219 c 0.96093,0 1.3125,0.84375 1.3125,1.3710938 0,0.6328125 -0.49219,1.4765625 -1.59375,1.4765625 z m 2.34375,0.09375 c 0.97266,-0.1992188 1.65234,-0.8320313 1.65234,-1.5703125 0,-0.8671875 -0.91406,-1.6875 -2.20312,-1.6875 h -3.64453 v 0.3164062 h 0.23437 c 0.76172,0 0.78516,0.1054688 0.78516,0.46875 v 5.25000001 c 0,0.3515625 -0.0234,0.46875 -0.78516,0.46875 h -0.23437 v 0.3046875 h 3.90234 c 1.32422,0 2.21485,-0.890625 2.21485,-1.82812501 0,-0.8671875 -0.8086,-1.6054687 -1.92188,-1.7226562 z m -0.60937,3.24609371 h -1.25391 c -0.46875,0 -0.48047,-0.0703125 -0.48047,-0.3984375 V -3.4207422 h 1.875 c 0.98438,0 1.39453,0.9257813 1.39453,1.59375 0,0.703125 -0.51562,1.52343751 -1.53515,1.52343751 z m 0,0"
         style="fill:#000000;fill-opacity:1;fill-rule:nonzero;stroke:none" />
      <path
         id="path14"
         d="m 152.77148,-2.3191797 c 0.0469,-0.1171875 0.0469,-0.140625 0.0469,-0.1757812 0,-0.023437 0,-0.046875 -0.0469,-0.1640625 l -1.74609,-4.5820313 c -0.0586,-0.1640625 -0.11719,-0.234375 -0.22266,-0.234375 -0.11718,0 -0.19921,0.09375 -0.19921,0.1992188 0,0.035156 0,0.058594 0.0469,0.1640625 l 1.75781,4.6171875 -1.75781,4.6054687 c -0.0469,0.1171875 -0.0469,0.1289063 -0.0469,0.1875 0,0.1054688 0.082,0.1992188 0.19921,0.1992188 0.12891,0 0.16407,-0.1054688 0.21094,-0.1992188 z m 0,0"
         style="fill:#000000;fill-opacity:1;fill-rule:nonzero;stroke:none" />
      <path
         id="path15"
         d="m 158.75684,-4.0887109 -0.83204,-1.9921875 c -0.0352,-0.070312 -0.0469,-0.1171875 -0.0469,-0.1289063 0,-0.058594 0.16406,-0.2460937 0.58594,-0.28125 0.0937,-0.011719 0.19922,-0.023437 0.19922,-0.1875 0,-0.1289062 -0.11719,-0.1289062 -0.15235,-0.1289062 -0.41015,0 -0.83203,0.035156 -1.2539,0.035156 -0.2461,0 -0.86719,-0.035156 -1.11329,-0.035156 -0.0586,0 -0.1875,0 -0.1875,0.1992187 0,0.1171875 0.10547,0.1171875 0.23438,0.1171875 0.59766,0 0.65625,0.09375 0.75,0.3164063 l 1.17187,2.7773437 -2.09765,2.2617188 -0.12891,0.1054687 c -0.49219,0.52734376 -0.96094,0.69140626 -1.46484,0.72656251 -0.12891,0 -0.22266,0 -0.22266,0.19921875 0,0 0,0.10546875 0.12891,0.10546875 0.30469,0 0.63281,-0.03515625 0.9375,-0.03515625 0.36328,0 0.76172,0.03515625 1.11328,0.03515625 0.0586,0 0.17578,0 0.17578,-0.19921875 0,-0.10546875 -0.0937,-0.10546875 -0.11719,-0.10546875 -0.082,-0.0117188 -0.39843,-0.0351563 -0.39843,-0.31640625 0,-0.15234375 0.15234,-0.31640625 0.26953,-0.44531246 l 1.01953,-1.078125 0.89062,-0.9726563 1.00782,2.37890626 c 0.0469,0.10546875 0.0469,0.1171875 0.0469,0.140625 0,0.0820313 -0.1875,0.24609375 -0.57422,0.29296875 -0.10547,0 -0.19922,0.0117188 -0.19922,0.1875 0,0.1171875 0.11719,0.1171875 0.15235,0.1171875 0.28125,0 0.97265,-0.03515625 1.2539,-0.03515625 0.2461,0 0.85547,0.03515625 1.10157,0.03515625 0.0703,0 0.19921,0 0.19921,-0.1875 0,-0.1171875 -0.10546,-0.1171875 -0.1875,-0.1171875 -0.66796,-0.0117188 -0.67968,-0.046875 -0.85546,-0.4453125 -0.38672,-0.92578121 -1.05469,-2.47265621 -1.28907,-3.07031251 0.67969,-0.703125 1.73438,-1.8867187 2.05078,-2.1679687 0.28125,-0.234375 0.66797,-0.4804688 1.26563,-0.5039063 0.12891,-0.011719 0.21094,-0.011719 0.21094,-0.1992187 0,-0.011719 0,-0.1171875 -0.12891,-0.1171875 -0.29297,0 -0.62109,0.035156 -0.9375,0.035156 -0.36328,0 -0.73828,-0.035156 -1.10156,-0.035156 -0.0586,0 -0.1875,0 -0.1875,0.1992187 0,0.070312 0.0469,0.1054688 0.11719,0.1171875 0.0937,0.011719 0.39843,0.023437 0.39843,0.3046875 0,0.140625 -0.10547,0.2695313 -0.1875,0.3632813 z m 0,0"
         style="fill:#000000;fill-opacity:1;fill-rule:nonzero;stroke:none" />
      <path
         id="path16"
         d="m 165.85254,-2.4949609 c 0,-0.7734375 -0.11719,-1.9804688 -0.65625,-3.1054688 -0.59766,-1.21875 -1.46484,-1.875 -1.55859,-1.875 -0.0586,0 -0.10547,0.046875 -0.10547,0.1054688 0,0.035156 0,0.046875 0.19922,0.234375 0.97265,0.984375 1.53515,2.5664062 1.53515,4.640625 0,1.71093746 -0.36328,3.45703121 -1.59375,4.7226562 -0.14062,0.1171875 -0.14062,0.1289063 -0.14062,0.1640625 0,0.058594 0.0469,0.1054688 0.10547,0.1054688 0.0937,0 0.99609,-0.6796875 1.58203,-1.94531254 0.5039,-1.1015625 0.63281,-2.20312496 0.63281,-3.04687496 z m 0,0"
         style="fill:#000000;fill-opacity:1;fill-rule:nonzero;stroke:none" />
      <path
         id="path17"
         d="m 175.06641,-5.5535547 c 0.0703,-0.1289062 0.0703,-0.1523437 0.0703,-0.1992187 0,-0.1171875 -0.082,-0.1992188 -0.19922,-0.1992188 -0.0937,0 -0.15234,0.070312 -0.22266,0.2109375 l -2.34375,5.27343751 -2.34375,-5.27343751 c -0.0703,-0.1992187 -0.15234,-0.2109375 -0.22265,-0.2109375 -0.11719,0 -0.19922,0.082031 -0.19922,0.1992188 0,0.011719 0,0.035156 0.0586,0.1523437 l 2.48438,5.61328126 c 0.0703,0.1640625 0.1289,0.2109375 0.22265,0.2109375 0.12891,0 0.16407,-0.0703125 0.22266,-0.2109375 z m 0,0"
         style="fill:#000000;fill-opacity:1;fill-rule:nonzero;stroke:none" />
      <path
         id="path18"
         d="M 180.45117,2.4972266 V 2.0987891 h -0.97265 v -9.1757813 h 0.97265 v -0.3984375 h -1.37109 v 9.9726563 z m 0,0"
         style="fill:#000000;fill-opacity:1;fill-rule:nonzero;stroke:none" />
      <path
         id="path19"
         d="m 182.27051,-0.77230469 c -0.0937,0.38671875 -0.11719,0.46875 -0.90235,0.46875 -0.17578,0 -0.26953,0 -0.26953,0.19921875 0,0.10546875 0.082,0.10546875 0.26953,0.10546875 h 3.55079 c 1.57031,0 2.7539,-1.17187501 2.7539,-2.15625001 0,-0.7148437 -0.58594,-1.2890625 -1.54687,-1.3945312 1.03125,-0.1992188 2.08593,-0.9375 2.08593,-1.875 0,-0.7382813 -0.65625,-1.3828125 -1.85156,-1.3828125 h -3.35156 c -0.1875,0 -0.29297,0 -0.29297,0.1992187 0,0.1171875 0.0937,0.1171875 0.28125,0.1171875 0.0234,0 0.21094,0 0.375,0.011719 0.1875,0.023437 0.26953,0.035156 0.26953,0.1640625 0,0.035156 -0.0117,0.070312 -0.0352,0.1875 z m 1.5,-2.87109371 0.62109,-2.4726563 c 0.0937,-0.3515625 0.10547,-0.375 0.53906,-0.375 h 1.28907 c 0.86718,0 1.07812,0.5859375 1.07812,1.0195313 0,0.8789062 -0.85547,1.828125 -2.07422,1.828125 z m -0.44531,3.33984371 c -0.14063,0 -0.15235,0 -0.22266,-0.0117188 -0.0937,-0.0117188 -0.12891,-0.0234375 -0.12891,-0.10546875 0,-0.0234375 0,-0.046875 0.0586,-0.22265625 l 0.67968,-2.77734381 h 1.88672 c 0.96094,0 1.14844,0.7265625 1.14844,1.1601563 0,0.984375 -0.89062,1.95703126 -2.0625,1.95703126 z m 0,0"
         style="fill:#000000;fill-opacity:1;fill-rule:nonzero;stroke:none" />
      <path
         id="path20"
         d="m 190.31543,-7.4754297 h -1.35938 v 0.3984375 h 0.96094 v 9.1757813 h -0.96094 v 0.3984375 h 1.35938 z m 0,0"
         style="fill:#000000;fill-opacity:1;fill-rule:nonzero;stroke:none" />
      <path
         id="path21"
         d="m 198.6709,-6.5613672 c 0.0117,-0.046875 0.0352,-0.09375 0.0352,-0.1523437 0,-0.09375 -0.0586,-0.09375 -0.25781,-0.09375 h -4.19531 c -0.24609,0 -0.25781,0.011719 -0.31641,0.1992187 l -0.53906,1.7929688 c -0.0234,0.058594 -0.0352,0.1289062 -0.0352,0.140625 0,0.011719 0,0.1171875 0.11719,0.1171875 0.0937,0 0.11719,-0.070312 0.12891,-0.1054688 0.38672,-1.171875 0.90234,-1.828125 2.44922,-1.828125 h 1.6289 l -5.5664,6.22265626 c 0,0.0117188 -0.0469,0.15234375 -0.0469,0.17578125 0,0.09375 0.0703,0.09375 0.25781,0.09375 h 4.32422 c 0.2461,0 0.25782,-0.01171875 0.31641,-0.19921875 l 0.70312,-2.20312496 c 0.0117,-0.035156 0.0352,-0.1054688 0.0352,-0.1523438 0,-0.046875 -0.0352,-0.1054687 -0.12891,-0.1054687 -0.082,0 -0.0937,0.035156 -0.16406,0.2460937 -0.43359,1.359375 -0.91406,2.07421876 -2.61328,2.07421876 h -1.69922 z M 82.245117,13.307773 82.385742,13.167148 c 0.304688,-0.292968 0.632813,-0.632812 1.3125,-0.679687 0.105469,-0.01172 0.199219,-0.01172 0.199219,-0.1875 0,-0.08203 -0.05859,-0.128906 -0.128906,-0.128906 -0.257813,0 -0.550782,0.03516 -0.820313,0.03516 -0.328125,0 -0.679687,-0.03516 -0.996094,-0.03516 -0.05859,0 -0.1875,0 -0.1875,0.199218 0,0.105469 0.09375,0.117188 0.152344,0.117188 0.07031,0 0.351563,0.01172 0.351563,0.222656 0,0.175781 -0.222657,0.433594 -0.269532,0.480469 l -2.308593,2.660156 -1.089844,-2.953125 c -0.07031,-0.140625 -0.07031,-0.164062 -0.07031,-0.175781 0,-0.234375 0.492188,-0.234375 0.597657,-0.234375 0.128906,0 0.234375,0 0.234375,-0.199219 0,-0.117187 -0.117188,-0.117187 -0.152344,-0.117187 -0.28125,0 -0.972656,0.03516 -1.253906,0.03516 -0.246094,0 -0.867188,-0.03516 -1.113282,-0.03516 -0.05859,0 -0.1875,0 -0.1875,0.199218 0,0.117188 0.09375,0.117188 0.222657,0.117188 0.597656,0 0.644531,0.08203 0.726562,0.339844 l 1.230469,3.269531 c 0.01172,0.03516 0.03516,0.140625 0.03516,0.175781 0,0.02344 -0.398437,1.628906 -0.445312,1.804688 -0.128907,0.550781 -0.140625,0.585937 -0.9375,0.597656 -0.1875,0 -0.269532,0 -0.269532,0.199219 0,0.105468 0.117188,0.105468 0.140625,0.105468 0.28125,0 0.972657,-0.03516 1.253907,-0.03516 0.28125,0 0.996093,0.03516 1.277343,0.03516 0.07031,0 0.1875,0 0.1875,-0.199218 0,-0.105469 -0.08203,-0.105469 -0.28125,-0.105469 -0.01172,0 -0.199218,0 -0.375,-0.02344 -0.210937,-0.02344 -0.269531,-0.03516 -0.269531,-0.164062 0,-0.07031 0.09375,-0.410156 0.140625,-0.621094 l 0.351563,-1.40625 c 0.04687,-0.1875 0.05859,-0.222656 0.140625,-0.304687 z m 0,0"
         style="fill:#000000;fill-opacity:1;fill-rule:nonzero;stroke:none" />
      <path
         id="path22"
         d="M 88.992187,8.7286719 C 88.921875,8.5763281 88.875,8.5763281 88.722656,8.5763281 h -1.21875 v 0.2460938 h 0.164063 c 0.539062,0 0.550781,0.070312 0.550781,0.3164062 v 3.4453129 c 0,0.1875 0,0.503906 -0.714844,0.503906 v 0.246094 c 0.28125,-0.02344 0.5625,-0.02344 0.84375,-0.02344 0.292969,0 0.574219,0 0.855469,0.02344 v -0.246094 c -0.714844,0 -0.714844,-0.316406 -0.714844,-0.503906 V 8.9044531 l 1.816406,4.2656249 c 0.03516,0.08203 0.07031,0.164063 0.175782,0.164063 0.04687,0 0.105468,-0.02344 0.164062,-0.140625 l 1.839844,-4.3593754 h 0.01172 v 3.9375004 c 0,0.234375 -0.01172,0.316406 -0.550782,0.316406 H 91.78125 v 0.246094 c 0.328125,-0.01172 0.726562,-0.02344 1.007812,-0.02344 0.28125,0 0.679688,0.01172 1.007813,0.02344 v -0.246094 h -0.164063 c -0.539062,0 -0.550781,-0.07031 -0.550781,-0.316406 V 9.1388281 c 0,-0.234375 0.01172,-0.3164062 0.550781,-0.3164062 h 0.164063 V 8.5763281 h -1.207031 c -0.140625,0 -0.210938,0 -0.257813,0.140625 L 90.65625,12.666172 Z m 8.35254,2.7421871 c 0,-0.375 0,-0.644531 -0.316407,-0.902343 -0.28125,-0.234375 -0.621093,-0.339844 -1.03125,-0.339844 -0.667968,0 -1.125,0.246094 -1.125,0.667969 0,0.222656 0.152344,0.339843 0.328125,0.339843 0.1875,0 0.328125,-0.128906 0.328125,-0.316406 0,-0.128906 -0.05859,-0.269531 -0.246093,-0.328125 0.257812,-0.175781 0.65625,-0.175781 0.703125,-0.175781 0.386718,0 0.808593,0.257812 0.808593,0.84375 v 0.222656 c -0.375,0.01172 -0.84375,0.03516 -1.347656,0.222656 -0.632812,0.222657 -0.820312,0.609375 -0.820312,0.925782 0,0.597656 0.726562,0.773437 1.21875,0.773437 0.550781,0 0.878906,-0.316406 1.03125,-0.585937 0.02344,0.28125 0.210937,0.550781 0.539062,0.550781 0.01172,0 0.691406,0 0.691406,-0.667969 v -0.375 h -0.246093 v 0.375 c 0,0.07031 0,0.398438 -0.257813,0.398438 -0.257812,0 -0.257812,-0.328125 -0.257812,-0.410157 z m -0.550782,0.878907 c 0,0.667968 -0.585937,0.855468 -0.890625,0.855468 -0.363281,0 -0.691406,-0.234375 -0.691406,-0.574218 0,-0.386719 0.328125,-0.925782 1.582031,-0.972657 z m 3.782225,-0.574219 c -0.0117,-0.01172 -0.0586,-0.07031 -0.0586,-0.07031 0,-0.02344 0.45703,-0.515625 0.52734,-0.585937 0.23438,-0.269531 0.48047,-0.527344 1.03125,-0.539063 v -0.246093 c -0.1875,0.01172 -0.39844,0.02344 -0.58594,0.02344 -0.21093,0 -0.48046,-0.01172 -0.6914,-0.02344 v 0.246093 c 0.11719,0.02344 0.14062,0.09375 0.14062,0.164063 0,0.01172 0,0.117187 -0.10547,0.234375 l -0.48046,0.550781 -0.585942,-0.667969 c -0.07031,-0.07031 -0.07031,-0.105468 -0.07031,-0.140625 0,-0.09375 0.09375,-0.140625 0.1875,-0.140625 v -0.246093 c -0.257813,0.01172 -0.527344,0.02344 -0.785157,0.02344 -0.210937,0 -0.46875,-0.01172 -0.679687,-0.02344 v 0.246093 c 0.328125,0 0.503906,0 0.691406,0.210938 l 0.867188,1.007812 c 0.01172,0 0.05859,0.05859 0.05859,0.05859 0,0.02344 -0.527346,0.597656 -0.597659,0.679688 -0.257812,0.269531 -0.492187,0.527343 -1.054687,0.550781 v 0.246094 c 0.210937,-0.01172 0.363281,-0.02344 0.585937,-0.02344 0.210938,0 0.492188,0 0.691406,0.02344 v -0.246094 c -0.08203,-0.02344 -0.140625,-0.07031 -0.140625,-0.164063 0,-0.128906 0.08203,-0.222656 0.199219,-0.339843 l 0.480469,-0.539063 0.60938,0.691406 c 0.1289,0.140625 0.1289,0.164063 0.1289,0.199219 0,0.140625 -0.15234,0.152344 -0.1875,0.152344 v 0.246094 c 0.0703,-0.01172 0.5625,-0.02344 0.78516,-0.02344 0.22266,0 0.44531,0 0.67969,0.02344 v -0.246094 c -0.46875,0 -0.52735,-0.04687 -0.69141,-0.222656 z m 0,0"
         style="fill:#000000;fill-opacity:1;fill-rule:nonzero;stroke:none" />
      <path
         id="path23"
         d="m 97.702148,15.721836 c 0.152344,0 0.339844,0 0.339844,-0.199219 0,-0.199219 -0.1875,-0.199219 -0.328125,-0.199219 h -5.964844 c -0.140625,0 -0.328125,0 -0.328125,0.199219 0,0.199219 0.1875,0.199219 0.339844,0.199219 z m 0.01172,1.933594 c 0.140625,0 0.328125,0 0.328125,-0.199219 0,-0.199219 -0.1875,-0.199219 -0.339844,-0.199219 h -5.941406 c -0.152344,0 -0.339844,0 -0.339844,0.199219 0,0.199219 0.1875,0.199219 0.328125,0.199219 z m 0,0"
         style="fill:#000000;fill-opacity:1;fill-rule:nonzero;stroke:none" />
      <path
         id="path24"
         d="m 108.43066,11.889805 c 0.0469,-0.117188 0.0469,-0.128907 0.0469,-0.1875 0,-0.105469 -0.0937,-0.199219 -0.19922,-0.199219 -0.0937,0 -0.16406,0.05859 -0.22266,0.234375 l -1.74609,4.570312 c -0.0234,0.05859 -0.0469,0.117188 -0.0469,0.175782 0,0.03516 0,0.05859 0.0469,0.175781 l 1.74609,4.570312 c 0.0352,0.105469 0.082,0.246094 0.22266,0.246094 0.10547,0 0.19922,-0.09375 0.19922,-0.199219 0,-0.03516 0,-0.05859 -0.0469,-0.164062 l -1.76953,-4.628906 z m 0,0"
         style="fill:#000000;fill-opacity:1;fill-rule:nonzero;stroke:none" />
      <path
         id="path25"
         d="m 111.25195,15.335117 v -2.449219 c 0,-0.328125 0.0117,-0.398437 0.48047,-0.398437 h 1.24219 c 0.96094,0 1.3125,0.84375 1.3125,1.371094 0,0.632812 -0.49219,1.476562 -1.59375,1.476562 z m 2.34375,0.09375 c 0.97266,-0.199219 1.65235,-0.832031 1.65235,-1.570312 0,-0.867188 -0.91407,-1.6875 -2.20313,-1.6875 h -3.64453 v 0.316406 h 0.23438 c 0.76171,0 0.78515,0.105469 0.78515,0.46875 v 5.25 c 0,0.351562 -0.0234,0.46875 -0.78515,0.46875 h -0.23438 v 0.304687 h 3.90234 c 1.32422,0 2.21485,-0.890625 2.21485,-1.828125 0,-0.867187 -0.8086,-1.605468 -1.92188,-1.722656 z m -0.60937,3.246094 h -1.25391 c -0.46875,0 -0.48047,-0.07031 -0.48047,-0.398438 v -2.71875 h 1.875 c 0.98438,0 1.39453,0.925782 1.39453,1.59375 0,0.703125 -0.51562,1.523438 -1.53515,1.523438 z m 0,0"
         style="fill:#000000;fill-opacity:1;fill-rule:nonzero;stroke:none" />
      <path
         id="path26"
         d="m 118.81348,16.659336 c 0.0469,-0.117188 0.0469,-0.140625 0.0469,-0.175781 0,-0.02344 0,-0.04687 -0.0469,-0.164063 l -1.7461,-4.582031 c -0.0586,-0.164063 -0.11718,-0.234375 -0.22265,-0.234375 -0.11719,0 -0.19922,0.09375 -0.19922,0.199219 0,0.03516 0,0.05859 0.0469,0.164062 l 1.75782,4.617188 -1.75782,4.605468 c -0.0469,0.117188 -0.0469,0.128907 -0.0469,0.1875 0,0.105469 0.082,0.199219 0.19922,0.199219 0.1289,0 0.16406,-0.105469 0.21093,-0.199219 z m 0,0"
         style="fill:#000000;fill-opacity:1;fill-rule:nonzero;stroke:none" />
      <path
         id="path27"
         d="m 124.7959,14.889805 -0.83203,-1.992188 c -0.0352,-0.07031 -0.0469,-0.117187 -0.0469,-0.128906 0,-0.05859 0.16406,-0.246094 0.58594,-0.28125 0.0937,-0.01172 0.19922,-0.02344 0.19922,-0.1875 0,-0.128906 -0.11719,-0.128906 -0.15235,-0.128906 -0.41015,0 -0.83203,0.03516 -1.2539,0.03516 -0.2461,0 -0.86719,-0.03516 -1.11328,-0.03516 -0.0586,0 -0.1875,0 -0.1875,0.199218 0,0.117188 0.10547,0.117188 0.23437,0.117188 0.59766,0 0.65625,0.09375 0.75,0.316406 l 1.17188,2.777344 -2.09766,2.261719 -0.12891,0.105468 c -0.49218,0.527344 -0.96093,0.691407 -1.46484,0.726563 -0.12891,0 -0.22266,0 -0.22266,0.199219 0,0 0,0.105468 0.12891,0.105468 0.30469,0 0.63281,-0.03516 0.9375,-0.03516 0.36328,0 0.76172,0.03516 1.11328,0.03516 0.0586,0 0.17578,0 0.17578,-0.199218 0,-0.105469 -0.0937,-0.105469 -0.11718,-0.105469 -0.082,-0.01172 -0.39844,-0.03516 -0.39844,-0.316406 0,-0.152344 0.15234,-0.316407 0.26953,-0.445313 l 1.01953,-1.078125 0.89063,-0.972656 1.00781,2.378906 c 0.0469,0.105469 0.0469,0.117188 0.0469,0.140625 0,0.08203 -0.1875,0.246094 -0.57422,0.292969 -0.10546,0 -0.19921,0.01172 -0.19921,0.1875 0,0.117187 0.11718,0.117187 0.15234,0.117187 0.28125,0 0.97266,-0.03516 1.25391,-0.03516 0.24609,0 0.85546,0.03516 1.10156,0.03516 0.0703,0 0.19922,0 0.19922,-0.1875 0,-0.117187 -0.10547,-0.117187 -0.1875,-0.117187 -0.66797,-0.01172 -0.67969,-0.04687 -0.85547,-0.445313 -0.38672,-0.925781 -1.05469,-2.472656 -1.28906,-3.070312 0.67968,-0.703125 1.73437,-1.886719 2.05078,-2.167969 0.28125,-0.234375 0.66797,-0.480469 1.26562,-0.503906 0.12891,-0.01172 0.21094,-0.01172 0.21094,-0.199219 0,-0.01172 0,-0.117187 -0.12891,-0.117187 -0.29297,0 -0.62109,0.03516 -0.9375,0.03516 -0.36328,0 -0.73828,-0.03516 -1.10156,-0.03516 -0.0586,0 -0.1875,0 -0.1875,0.199218 0,0.07031 0.0469,0.105469 0.11719,0.117188 0.0937,0.01172 0.39844,0.02344 0.39844,0.304687 0,0.140625 -0.10547,0.269532 -0.1875,0.363282 z m 0,0"
         style="fill:#000000;fill-opacity:1;fill-rule:nonzero;stroke:none" />
      <path
         id="path28"
         d="m 134.77148,13.237461 c -0.082,-0.175781 -0.14062,-0.210938 -0.23437,-0.210938 -0.12891,0 -0.16406,0.07031 -0.22266,0.210938 l -2.47265,5.566406 c -0.0586,0.128906 -0.0703,0.140625 -0.0703,0.199219 0,0.105469 0.082,0.199219 0.19922,0.199219 0.0703,0 0.15235,-0.02344 0.22266,-0.210938 l 2.34375,-5.285156 2.34375,5.285156 c 0.082,0.210938 0.1875,0.210938 0.22266,0.210938 0.11718,0 0.19921,-0.09375 0.19921,-0.199219 0,-0.02344 0,-0.04687 -0.0586,-0.164063 z m 8.57227,-1.347656 c 0.0469,-0.117188 0.0469,-0.128907 0.0469,-0.1875 0,-0.105469 -0.0937,-0.199219 -0.19921,-0.199219 -0.0937,0 -0.16407,0.05859 -0.22266,0.234375 l -1.74609,4.570312 c -0.0234,0.05859 -0.0469,0.117188 -0.0469,0.175782 0,0.03516 0,0.05859 0.0469,0.175781 l 1.74609,4.570312 c 0.0352,0.105469 0.082,0.246094 0.22266,0.246094 0.10546,0 0.19921,-0.09375 0.19921,-0.199219 0,-0.03516 0,-0.05859 -0.0469,-0.164062 l -1.76953,-4.628906 z m 0,0"
         style="fill:#000000;fill-opacity:1;fill-rule:nonzero;stroke:none" />
      <path
         id="path29"
         d="m 147.9082,12.042148 c -0.0469,-0.128906 -0.0703,-0.199218 -0.22265,-0.199218 -0.16407,0 -0.1875,0.05859 -0.2461,0.199218 l -2.0625,5.964844 c -0.17578,0.503906 -0.57422,0.65625 -1.11328,0.667969 v 0.304687 c 0.23438,-0.01172 0.65625,-0.03516 1.01953,-0.03516 0.30469,0 0.82032,0.02344 1.14844,0.03516 v -0.304687 c -0.50391,0 -0.75,-0.257813 -0.75,-0.515625 0,-0.02344 0.0117,-0.128906 0.0234,-0.140625 l 0.45703,-1.3125 h 2.46094 l 0.52734,1.523437 c 0.0117,0.04687 0.0234,0.105469 0.0234,0.140625 0,0.304688 -0.55078,0.304688 -0.82031,0.304688 v 0.304687 c 0.35156,-0.03516 1.05468,-0.03516 1.42968,-0.03516 0.4336,0 0.89063,0.01172 1.30078,0.03516 v -0.304687 h -0.17578 c -0.59765,0 -0.73828,-0.07031 -0.84375,-0.398438 z m -0.52734,1.125 1.125,3.234375 h -2.23828 z m 5.20019,3.644532 c 0,-1.628907 0.82032,-2.050782 1.34766,-2.050782 0.0937,0 0.71484,0.01172 1.06641,0.375 -0.41016,0.02344 -0.46875,0.328125 -0.46875,0.457032 0,0.257812 0.1875,0.457031 0.45703,0.457031 0.25781,0 0.45703,-0.164063 0.45703,-0.46875 0,-0.679688 -0.75,-1.066406 -1.52344,-1.066406 -1.24219,0 -2.15625,1.078125 -2.15625,2.308593 0,1.277344 0.98438,2.261719 2.14453,2.261719 1.33594,0 1.65235,-1.195312 1.65235,-1.289062 0,-0.105469 -0.10547,-0.105469 -0.12891,-0.105469 -0.0937,0 -0.11719,0.04687 -0.12891,0.105469 -0.29296,0.925781 -0.9375,1.042968 -1.3125,1.042968 -0.52734,0 -1.40625,-0.421875 -1.40625,-2.027343 z m 4.98926,-1.816407 H 159 v -0.304687 h -1.42969 v -1.839844 h -0.24609 c -0.0117,0.820313 -0.31641,1.886719 -1.28906,1.921875 v 0.222656 h 0.84375 v 2.753907 c 0,1.21875 0.92578,1.335937 1.28906,1.335937 0.70312,0 0.98437,-0.703125 0.98437,-1.335937 v -0.574219 h -0.24609 v 0.550781 c 0,0.738281 -0.30469,1.113281 -0.66797,1.113281 -0.66797,0 -0.66797,-0.902343 -0.66797,-1.078125 z m 0,0"
         style="fill:#000000;fill-opacity:1;fill-rule:nonzero;stroke:none" />
      <path
         id="path30"
         d="m 162.44238,16.659336 c 0.0469,-0.117188 0.0469,-0.140625 0.0469,-0.175781 0,-0.02344 0,-0.04687 -0.0469,-0.164063 l -1.74609,-4.582031 c -0.0586,-0.164063 -0.11719,-0.234375 -0.22266,-0.234375 -0.11718,0 -0.19922,0.09375 -0.19922,0.199219 0,0.03516 0,0.05859 0.0469,0.164062 l 1.75781,4.617188 -1.75781,4.605468 c -0.0469,0.117188 -0.0469,0.128907 -0.0469,0.1875 0,0.105469 0.082,0.199219 0.19922,0.199219 0.12891,0 0.16407,-0.105469 0.21094,-0.199219 z m 0,0"
         style="fill:#000000;fill-opacity:1;fill-rule:nonzero;stroke:none" />
      <path
         id="path31"
         d="m 169.53809,13.307773 0.14062,-0.140625 c 0.30469,-0.292968 0.63281,-0.632812 1.3125,-0.679687 0.10547,-0.01172 0.19922,-0.01172 0.19922,-0.1875 0,-0.08203 -0.0586,-0.128906 -0.12891,-0.128906 -0.25781,0 -0.55078,0.03516 -0.82031,0.03516 -0.32812,0 -0.67969,-0.03516 -0.99609,-0.03516 -0.0586,0 -0.1875,0 -0.1875,0.199218 0,0.105469 0.0937,0.117188 0.15234,0.117188 0.0703,0 0.35156,0.01172 0.35156,0.222656 0,0.175781 -0.22265,0.433594 -0.26953,0.480469 l -2.30859,2.660156 -1.08985,-2.953125 c -0.0703,-0.140625 -0.0703,-0.164062 -0.0703,-0.175781 0,-0.234375 0.49219,-0.234375 0.59766,-0.234375 0.1289,0 0.23437,0 0.23437,-0.199219 0,-0.117187 -0.11718,-0.117187 -0.15234,-0.117187 -0.28125,0 -0.97266,0.03516 -1.25391,0.03516 -0.24609,0 -0.86718,-0.03516 -1.11328,-0.03516 -0.0586,0 -0.1875,0 -0.1875,0.199218 0,0.117188 0.0937,0.117188 0.22266,0.117188 0.59765,0 0.64453,0.08203 0.72656,0.339844 l 1.23047,3.269531 c 0.0117,0.03516 0.0352,0.140625 0.0352,0.175781 0,0.02344 -0.39844,1.628906 -0.44532,1.804688 -0.1289,0.550781 -0.14062,0.585937 -0.9375,0.597656 -0.1875,0 -0.26953,0 -0.26953,0.199219 0,0.105468 0.11719,0.105468 0.14063,0.105468 0.28125,0 0.97265,-0.03516 1.2539,-0.03516 0.28125,0 0.9961,0.03516 1.27735,0.03516 0.0703,0 0.1875,0 0.1875,-0.199218 0,-0.105469 -0.082,-0.105469 -0.28125,-0.105469 -0.0117,0 -0.19922,0 -0.375,-0.02344 -0.21094,-0.02344 -0.26953,-0.03516 -0.26953,-0.164062 0,-0.07031 0.0937,-0.410156 0.14062,-0.621094 l 0.35156,-1.40625 c 0.0469,-0.1875 0.0586,-0.222656 0.14063,-0.304687 z M 81.131836,33.87125 80.299805,31.879063 c -0.03516,-0.07031 -0.04687,-0.117188 -0.04687,-0.128907 0,-0.05859 0.164062,-0.246093 0.585937,-0.28125 0.09375,-0.01172 0.199219,-0.02344 0.199219,-0.1875 0,-0.128906 -0.117188,-0.128906 -0.152344,-0.128906 -0.410156,0 -0.832031,0.03516 -1.253906,0.03516 -0.246094,0 -0.867188,-0.03516 -1.113281,-0.03516 -0.05859,0 -0.1875,0 -0.1875,0.199219 0,0.117187 0.105468,0.117187 0.234375,0.117187 0.597656,0 0.65625,0.09375 0.75,0.316407 l 1.171875,2.777343 -2.097657,2.261719 -0.128906,0.105469 c -0.492187,0.527344 -0.960937,0.691406 -1.464844,0.726562 -0.128906,0 -0.222656,0 -0.222656,0.199219 0,0 0,0.105469 0.128906,0.105469 0.304688,0 0.632813,-0.03516 0.9375,-0.03516 0.363282,0 0.761719,0.03516 1.113282,0.03516 0.05859,0 0.175781,0 0.175781,-0.199219 0,-0.105469 -0.09375,-0.105469 -0.117188,-0.105469 -0.08203,-0.01172 -0.398437,-0.03516 -0.398437,-0.316406 0,-0.152344 0.152344,-0.316406 0.269531,-0.445312 l 1.019531,-1.078125 0.890625,-0.972657 1.007813,2.378907 c 0.04687,0.105468 0.04687,0.117187 0.04687,0.140625 0,0.08203 -0.1875,0.246093 -0.574219,0.292968 -0.105469,0 -0.199219,0.01172 -0.199219,0.1875 0,0.117188 0.117188,0.117188 0.152344,0.117188 0.28125,0 0.972656,-0.03516 1.253906,-0.03516 0.246094,0 0.855469,0.03516 1.101563,0.03516 0.07031,0 0.199219,0 0.199219,-0.1875 0,-0.117188 -0.105469,-0.117188 -0.1875,-0.117188 -0.667969,-0.01172 -0.679688,-0.04687 -0.855469,-0.445312 -0.386719,-0.925781 -1.054688,-2.472656 -1.289063,-3.070313 0.679688,-0.703125 1.734375,-1.886718 2.050782,-2.167968 0.28125,-0.234375 0.667968,-0.480469 1.265625,-0.503907 0.128906,-0.01172 0.210937,-0.01172 0.210937,-0.199218 0,-0.01172 0,-0.117188 -0.128906,-0.117188 -0.292969,0 -0.621094,0.03516 -0.9375,0.03516 -0.363281,0 -0.738281,-0.03516 -1.101563,-0.03516 -0.05859,0 -0.1875,0 -0.1875,0.199219 0,0.07031 0.04687,0.105469 0.117188,0.117187 0.09375,0.01172 0.398437,0.02344 0.398437,0.304688 0,0.140625 -0.105468,0.269531 -0.1875,0.363281 z m 0,0"
         style="fill:#000000;fill-opacity:1;fill-rule:nonzero;stroke:none" />
      <path
         id="path32"
         d="m 90.029297,27.707188 c -0.07031,-0.152344 -0.117188,-0.152344 -0.269531,-0.152344 h -1.21875 v 0.246094 h 0.164062 c 0.539063,0 0.550781,0.07031 0.550781,0.316406 v 3.445312 c 0,0.1875 0,0.503907 -0.714843,0.503907 v 0.246093 c 0.28125,-0.02344 0.5625,-0.02344 0.84375,-0.02344 0.292968,0 0.574218,0 0.855468,0.02344 v -0.246093 c -0.714843,0 -0.714843,-0.316407 -0.714843,-0.503907 v -3.679687 l 1.816406,4.265625 c 0.03516,0.08203 0.07031,0.164062 0.175781,0.164062 0.04687,0 0.105469,-0.02344 0.164063,-0.140625 l 1.839843,-4.359375 h 0.01172 v 3.9375 c 0,0.234375 -0.01172,0.316407 -0.550781,0.316407 H 92.81836 v 0.246093 c 0.328125,-0.01172 0.726563,-0.02344 1.007813,-0.02344 0.28125,0 0.679687,0.01172 1.007812,0.02344 v -0.246093 h -0.164062 c -0.539063,0 -0.550781,-0.07031 -0.550781,-0.316407 v -3.632812 c 0,-0.234375 0.01172,-0.316406 0.550781,-0.316406 h 0.164062 v -0.246094 h -1.207031 c -0.140625,0 -0.210937,0 -0.257812,0.140625 l -1.675782,3.949219 z m 8.352539,2.742187 c 0,-0.375 0,-0.644531 -0.316406,-0.902344 -0.28125,-0.234375 -0.621094,-0.339843 -1.03125,-0.339843 -0.667969,0 -1.125,0.246093 -1.125,0.667968 0,0.222657 0.152343,0.339844 0.328125,0.339844 0.1875,0 0.328125,-0.128906 0.328125,-0.316406 0,-0.128906 -0.05859,-0.269531 -0.246094,-0.328125 0.257812,-0.175781 0.65625,-0.175781 0.703125,-0.175781 0.386719,0 0.808594,0.257812 0.808594,0.84375 v 0.222656 c -0.375,0.01172 -0.84375,0.03516 -1.347657,0.222656 -0.632812,0.222656 -0.820312,0.609375 -0.820312,0.925781 0,0.597657 0.726562,0.773438 1.21875,0.773438 0.550781,0 0.878906,-0.316406 1.03125,-0.585938 0.02344,0.28125 0.210937,0.550782 0.539062,0.550782 0.01172,0 0.691407,0 0.691407,-0.667969 v -0.375 h -0.246094 v 0.375 c 0,0.07031 0,0.398437 -0.257813,0.398437 -0.257812,0 -0.257812,-0.328125 -0.257812,-0.410156 z m -0.550781,0.878906 c 0,0.667969 -0.585938,0.855469 -0.890625,0.855469 -0.363282,0 -0.691407,-0.234375 -0.691407,-0.574219 0,-0.386718 0.328125,-0.925781 1.582032,-0.972656 z m 3.782225,-0.574218 c -0.0117,-0.01172 -0.0586,-0.07031 -0.0586,-0.07031 0,-0.02344 0.45703,-0.515625 0.52734,-0.585937 0.23438,-0.269532 0.48047,-0.527344 1.03125,-0.539063 v -0.246094 c -0.1875,0.01172 -0.39844,0.02344 -0.58594,0.02344 -0.21093,0 -0.48046,-0.01172 -0.6914,-0.02344 v 0.246094 c 0.11719,0.02344 0.14062,0.09375 0.14062,0.164063 0,0.01172 0,0.117187 -0.10547,0.234375 L 101.39063,30.507969 100.80469,29.84 c -0.0703,-0.07031 -0.0703,-0.105469 -0.0703,-0.140625 0,-0.09375 0.0937,-0.140625 0.1875,-0.140625 v -0.246094 c -0.25782,0.01172 -0.52735,0.02344 -0.78516,0.02344 -0.210939,0 -0.468751,-0.01172 -0.679689,-0.02344 v 0.246094 c 0.328125,0 0.503906,0 0.691409,0.210938 l 0.86719,1.007812 c 0.0117,0 0.0586,0.05859 0.0586,0.05859 0,0.02344 -0.52734,0.597656 -0.59766,0.679687 -0.25781,0.269532 -0.492185,0.527344 -1.054685,0.550782 v 0.246093 c 0.210937,-0.01172 0.363281,-0.02344 0.585935,-0.02344 0.21094,0 0.49219,0 0.69141,0.02344 v -0.246093 c -0.082,-0.02344 -0.14063,-0.07031 -0.14063,-0.164063 0,-0.128906 0.082,-0.222656 0.19922,-0.339844 l 0.48047,-0.539062 0.60938,0.691406 c 0.1289,0.140625 0.1289,0.164063 0.1289,0.199219 0,0.140625 -0.15234,0.152344 -0.1875,0.152344 v 0.246093 c 0.0703,-0.01172 0.5625,-0.02344 0.78516,-0.02344 0.22266,0 0.44531,0 0.67969,0.02344 v -0.246093 c -0.46875,0 -0.52735,-0.04687 -0.69141,-0.222657 z m 0,0"
         style="fill:#000000;fill-opacity:1;fill-rule:nonzero;stroke:none" />
      <path
         id="path33"
         d="m 98.739258,34.703281 c 0.152344,0 0.339844,0 0.339844,-0.199218 0,-0.199219 -0.1875,-0.199219 -0.328125,-0.199219 h -5.964844 c -0.140625,0 -0.328125,0 -0.328125,0.199219 0,0.199218 0.1875,0.199218 0.339844,0.199218 z m 0.01172,1.933594 c 0.140625,0 0.328125,0 0.328125,-0.199219 0,-0.199218 -0.1875,-0.199218 -0.339844,-0.199218 h -5.941406 c -0.152344,0 -0.339844,0 -0.339844,0.199218 0,0.199219 0.1875,0.199219 0.328125,0.199219 z m 0,0"
         style="fill:#000000;fill-opacity:1;fill-rule:nonzero;stroke:none" />
      <path
         id="path34"
         d="m 109.4707,30.87125 c 0.0469,-0.117187 0.0469,-0.128906 0.0469,-0.1875 0,-0.105469 -0.0937,-0.199219 -0.19922,-0.199219 -0.0937,0 -0.16406,0.05859 -0.22266,0.234375 l -1.74609,4.570313 c -0.0234,0.05859 -0.0469,0.117187 -0.0469,0.175781 0,0.03516 0,0.05859 0.0469,0.175781 l 1.74609,4.570313 c 0.0352,0.105469 0.082,0.246094 0.22266,0.246094 0.10547,0 0.19922,-0.09375 0.19922,-0.199219 0,-0.03516 0,-0.05859 -0.0469,-0.164063 L 107.70117,35.465 Z m 0,0"
         style="fill:#000000;fill-opacity:1;fill-rule:nonzero;stroke:none" />
      <path
         id="path35"
         d="m 112.28906,34.316563 v -2.449219 c 0,-0.328125 0.0117,-0.398438 0.48047,-0.398438 h 1.24219 c 0.96094,0 1.3125,0.84375 1.3125,1.371094 0,0.632813 -0.49219,1.476563 -1.59375,1.476563 z m 2.34375,0.09375 c 0.97266,-0.199219 1.65235,-0.832032 1.65235,-1.570313 0,-0.867187 -0.91407,-1.6875 -2.20313,-1.6875 h -3.64453 v 0.316406 h 0.23438 c 0.76171,0 0.78515,0.105469 0.78515,0.46875 v 5.25 c 0,0.351563 -0.0234,0.46875 -0.78515,0.46875 h -0.23438 v 0.304688 h 3.90234 c 1.32422,0 2.21485,-0.890625 2.21485,-1.828125 0,-0.867188 -0.8086,-1.605469 -1.92188,-1.722656 z m -0.60937,3.246093 h -1.25391 c -0.46875,0 -0.48047,-0.07031 -0.48047,-0.398437 v -2.71875 h 1.875 c 0.98438,0 1.39453,0.925781 1.39453,1.59375 0,0.703125 -0.51562,1.523437 -1.53515,1.523437 z m 0,0"
         style="fill:#000000;fill-opacity:1;fill-rule:nonzero;stroke:none" />
      <path
         id="path36"
         d="m 119.85059,35.640781 c 0.0469,-0.117187 0.0469,-0.140625 0.0469,-0.175781 0,-0.02344 0,-0.04687 -0.0469,-0.164062 l -1.7461,-4.582032 c -0.0586,-0.164062 -0.11719,-0.234375 -0.22265,-0.234375 -0.11719,0 -0.19922,0.09375 -0.19922,0.199219 0,0.03516 0,0.05859 0.0469,0.164063 l 1.75781,4.617187 -1.75781,4.605469 c -0.0469,0.117187 -0.0469,0.128906 -0.0469,0.1875 0,0.105469 0.082,0.199219 0.19922,0.199219 0.1289,0 0.16406,-0.105469 0.21093,-0.199219 z m 0,0"
         style="fill:#000000;fill-opacity:1;fill-rule:nonzero;stroke:none" />
      <path
         id="path37"
         d="m 123.05566,33.976719 h 0.9375 c 0.19922,0 0.30469,0 0.30469,-0.199219 0,-0.105469 -0.10547,-0.105469 -0.28125,-0.105469 h -0.8789 c 0.36328,-1.417968 0.41015,-1.617187 0.41015,-1.675781 0,-0.175781 -0.11719,-0.269531 -0.29297,-0.269531 -0.0234,0 -0.30468,0.01172 -0.39843,0.351562 l -0.38672,1.59375 h -0.9375 c -0.19922,0 -0.29297,0 -0.29297,0.1875 0,0.117188 0.0703,0.117188 0.26953,0.117188 h 0.87891 c -0.71485,2.824219 -0.75,3 -0.75,3.175781 0,0.539063 0.375,0.914063 0.91406,0.914063 1.00781,0 1.58203,-1.453125 1.58203,-1.535157 0,-0.09375 -0.082,-0.09375 -0.11719,-0.09375 -0.0937,0 -0.10547,0.02344 -0.15234,0.140625 -0.4336,1.03125 -0.96094,1.277344 -1.30078,1.277344 -0.19922,0 -0.30469,-0.128906 -0.30469,-0.457031 0,-0.246094 0.0234,-0.316406 0.0586,-0.480469 z m -1.38281,0 h 0.9375 c 0.19922,0 0.30469,0 0.30469,-0.199219 0,-0.105469 -0.10547,-0.105469 -0.28125,-0.105469 h -0.87891 c 0.36328,-1.417968 0.41016,-1.617187 0.41016,-1.675781 0,-0.175781 -0.11719,-0.269531 -0.29297,-0.269531 -0.0234,0 -0.30469,0.01172 -0.39844,0.351562 l -0.38672,1.59375 h -0.9375 c -0.19921,0 -0.29296,0 -0.29296,0.1875 0,0.117188 0.0703,0.117188 0.26953,0.117188 h 0.8789 c -0.71484,2.824219 -0.75,3 -0.75,3.175781 0,0.539063 0.375,0.914063 0.91407,0.914063 1.00781,0 1.58203,-1.453125 1.58203,-1.535157 0,-0.09375 -0.082,-0.09375 -0.11719,-0.09375 -0.0937,0 -0.10547,0.02344 -0.15234,0.140625 -0.4336,1.03125 -0.96094,1.277344 -1.30079,1.277344 -0.19921,0 -0.30468,-0.128906 -0.30468,-0.457031 0,-0.246094 0.0234,-0.316406 0.0586,-0.480469 z m 0,0"
         style="fill:#000000;fill-opacity:1;fill-rule:nonzero;stroke:none" />
      <path
         id="path38"
         d="m 128.98242,32.218906 c -0.082,-0.175781 -0.14062,-0.210937 -0.23437,-0.210937 -0.12891,0 -0.16407,0.07031 -0.22266,0.210937 l -2.47266,5.566407 c -0.0586,0.128906 -0.0703,0.140625 -0.0703,0.199218 0,0.105469 0.082,0.199219 0.19922,0.199219 0.0703,0 0.15234,-0.02344 0.22266,-0.210937 l 2.34375,-5.285157 2.34375,5.285157 c 0.082,0.210937 0.1875,0.210937 0.22265,0.210937 0.11719,0 0.19922,-0.09375 0.19922,-0.199219 0,-0.02344 0,-0.04687 -0.0586,-0.164062 z m 8.57227,-1.347656 c 0.0469,-0.117187 0.0469,-0.128906 0.0469,-0.1875 0,-0.105469 -0.0937,-0.199219 -0.19922,-0.199219 -0.0937,0 -0.16406,0.05859 -0.22265,0.234375 l -1.7461,4.570313 c -0.0234,0.05859 -0.0469,0.117187 -0.0469,0.175781 0,0.03516 0,0.05859 0.0469,0.175781 l 1.7461,4.570313 c 0.0352,0.105469 0.082,0.246094 0.22265,0.246094 0.10547,0 0.19922,-0.09375 0.19922,-0.199219 0,-0.03516 0,-0.05859 -0.0469,-0.164063 L 135.78516,35.465 Z m 0,0"
         style="fill:#000000;fill-opacity:1;fill-rule:nonzero;stroke:none" />
      <path
         id="path39"
         d="m 142.11914,31.023594 c -0.0469,-0.128906 -0.0703,-0.199219 -0.22266,-0.199219 -0.16406,0 -0.1875,0.05859 -0.24609,0.199219 l -2.0625,5.964844 c -0.17578,0.503906 -0.57422,0.65625 -1.11328,0.667968 v 0.304688 c 0.23437,-0.01172 0.65625,-0.03516 1.01953,-0.03516 0.30469,0 0.82031,0.02344 1.14844,0.03516 v -0.304688 c -0.50391,0 -0.75,-0.257812 -0.75,-0.515625 0,-0.02344 0.0117,-0.128906 0.0234,-0.140625 l 0.45703,-1.3125 h 2.46093 l 0.52735,1.523438 c 0.0117,0.04687 0.0234,0.105469 0.0234,0.140625 0,0.304687 -0.55079,0.304687 -0.82032,0.304687 v 0.304688 c 0.35157,-0.03516 1.05469,-0.03516 1.42969,-0.03516 0.43359,0 0.89063,0.01172 1.30078,0.03516 v -0.304688 h -0.17578 c -0.59766,0 -0.73828,-0.07031 -0.84375,-0.398437 z m -0.52734,1.125 1.125,3.234375 h -2.23828 z m 0,0"
         style="fill:#000000;fill-opacity:1;fill-rule:nonzero;stroke:none" />
      <path
         id="path40"
         d="m 148.35059,35.640781 c 0.0469,-0.117187 0.0469,-0.140625 0.0469,-0.175781 0,-0.02344 0,-0.04687 -0.0469,-0.164062 l -1.7461,-4.582032 c -0.0586,-0.164062 -0.11719,-0.234375 -0.22265,-0.234375 -0.11719,0 -0.19922,0.09375 -0.19922,0.199219 0,0.03516 0,0.05859 0.0469,0.164063 l 1.75781,4.617187 -1.75781,4.605469 c -0.0469,0.117187 -0.0469,0.128906 -0.0469,0.1875 0,0.105469 0.082,0.199219 0.19922,0.199219 0.1289,0 0.16406,-0.105469 0.21093,-0.199219 z m 0,0"
         style="fill:#000000;fill-opacity:1;fill-rule:nonzero;stroke:none" />
      <path
         id="path41"
         d="m 155.44629,32.289219 0.14062,-0.140625 c 0.30469,-0.292969 0.63282,-0.632813 1.3125,-0.679688 0.10547,-0.01172 0.19922,-0.01172 0.19922,-0.1875 0,-0.08203 -0.0586,-0.128906 -0.1289,-0.128906 -0.25782,0 -0.55078,0.03516 -0.82032,0.03516 -0.32812,0 -0.67968,-0.03516 -0.99609,-0.03516 -0.0586,0 -0.1875,0 -0.1875,0.199219 0,0.105469 0.0937,0.117187 0.15234,0.117187 0.0703,0 0.35157,0.01172 0.35157,0.222657 0,0.175781 -0.22266,0.433593 -0.26953,0.480468 l -2.3086,2.660157 -1.08984,-2.953125 c -0.0703,-0.140625 -0.0703,-0.164063 -0.0703,-0.175782 0,-0.234375 0.49218,-0.234375 0.59765,-0.234375 0.12891,0 0.23438,0 0.23438,-0.199218 0,-0.117188 -0.11719,-0.117188 -0.15235,-0.117188 -0.28125,0 -0.97265,0.03516 -1.2539,0.03516 -0.2461,0 -0.86719,-0.03516 -1.11328,-0.03516 -0.0586,0 -0.1875,0 -0.1875,0.199219 0,0.117187 0.0937,0.117187 0.22265,0.117187 0.59766,0 0.64453,0.08203 0.72656,0.339844 l 1.23047,3.269531 c 0.0117,0.03516 0.0352,0.140625 0.0352,0.175782 0,0.02344 -0.39844,1.628906 -0.44531,1.804687 -0.12891,0.550781 -0.14063,0.585938 -0.9375,0.597656 -0.1875,0 -0.26953,0 -0.26953,0.199219 0,0.105469 0.11718,0.105469 0.14062,0.105469 0.28125,0 0.97266,-0.03516 1.25391,-0.03516 0.28125,0 0.99609,0.03516 1.27734,0.03516 0.0703,0 0.1875,0 0.1875,-0.199219 0,-0.105469 -0.082,-0.105469 -0.28125,-0.105469 -0.0117,0 -0.19922,0 -0.375,-0.02344 -0.21094,-0.02344 -0.26953,-0.03516 -0.26953,-0.164063 0,-0.07031 0.0937,-0.410156 0.14062,-0.621093 l 0.35157,-1.40625 c 0.0469,-0.1875 0.0586,-0.222657 0.14062,-0.304688 z m 0,0"
         style="fill:#000000;fill-opacity:1;fill-rule:nonzero;stroke:none" />
      <path
         id="path42"
         d="m 163.27441,32.218906 c -0.082,-0.175781 -0.14062,-0.210937 -0.23437,-0.210937 -0.12891,0 -0.16406,0.07031 -0.22266,0.210937 l -2.47265,5.566407 c -0.0586,0.128906 -0.0703,0.140625 -0.0703,0.199218 0,0.105469 0.082,0.199219 0.19922,0.199219 0.0703,0 0.15235,-0.02344 0.22266,-0.210937 l 2.34375,-5.285157 2.34375,5.285157 c 0.082,0.210937 0.1875,0.210937 0.22266,0.210937 0.11718,0 0.19921,-0.09375 0.19921,-0.199219 0,-0.02344 0,-0.04687 -0.0586,-0.164062 z m 0,0"
         style="fill:#000000;fill-opacity:1;fill-rule:nonzero;stroke:none" />
      <path
         id="path43"
         d="M 171.12012,40.457188 V 40.05875 h -0.97266 v -9.175781 h 0.97266 v -0.398438 h -1.3711 v 9.972657 z m 0,0"
         style="fill:#000000;fill-opacity:1;fill-rule:nonzero;stroke:none" />
      <path
         id="path44"
         d="m 172.93945,37.187656 c -0.0937,0.386719 -0.11718,0.46875 -0.90234,0.46875 -0.17578,0 -0.26953,0 -0.26953,0.199219 0,0.105469 0.082,0.105469 0.26953,0.105469 h 3.55078 c 1.57031,0 2.75391,-1.171875 2.75391,-2.15625 0,-0.714844 -0.58594,-1.289063 -1.54688,-1.394531 1.03125,-0.199219 2.08594,-0.9375 2.08594,-1.875 0,-0.738282 -0.65625,-1.382813 -1.85156,-1.382813 h -3.35157 c -0.1875,0 -0.29296,0 -0.29296,0.199219 0,0.117187 0.0937,0.117187 0.28125,0.117187 0.0234,0 0.21093,0 0.375,0.01172 0.1875,0.02344 0.26953,0.03516 0.26953,0.164063 0,0.03516 -0.0117,0.07031 -0.0352,0.1875 z m 1.5,-2.871093 0.6211,-2.472657 c 0.0937,-0.351562 0.10547,-0.375 0.53906,-0.375 h 1.28906 c 0.86719,0 1.07813,0.585938 1.07813,1.019532 0,0.878906 -0.85547,1.828125 -2.07422,1.828125 z m -0.44531,3.339843 c -0.14062,0 -0.15234,0 -0.22266,-0.01172 -0.0937,-0.01172 -0.1289,-0.02344 -0.1289,-0.105469 0,-0.02344 0,-0.04687 0.0586,-0.222656 l 0.67969,-2.777344 h 1.88672 c 0.96094,0 1.14844,0.726562 1.14844,1.160156 0,0.984375 -0.89063,1.957031 -2.0625,1.957031 z m 0,0"
         style="fill:#000000;fill-opacity:1;fill-rule:nonzero;stroke:none" />
      <path
         id="path45"
         d="m 180.98145,30.484531 h -1.35938 v 0.398438 h 0.96094 v 9.175781 h -0.96094 v 0.398438 h 1.35938 z m 0,0"
         style="fill:#000000;fill-opacity:1;fill-rule:nonzero;stroke:none" />
      <path
         id="path46"
         d="m 186.99609,33.87125 -0.83203,-1.992187 c -0.0352,-0.07031 -0.0469,-0.117188 -0.0469,-0.128907 0,-0.05859 0.16406,-0.246093 0.58593,-0.28125 0.0937,-0.01172 0.19922,-0.02344 0.19922,-0.1875 0,-0.128906 -0.11718,-0.128906 -0.15234,-0.128906 -0.41016,0 -0.83203,0.03516 -1.25391,0.03516 -0.24609,0 -0.86718,-0.03516 -1.11328,-0.03516 -0.0586,0 -0.1875,0 -0.1875,0.199219 0,0.117187 0.10547,0.117187 0.23438,0.117187 0.59765,0 0.65625,0.09375 0.75,0.316407 l 1.17187,2.777343 -2.09765,2.261719 -0.12891,0.105469 c -0.49219,0.527344 -0.96094,0.691406 -1.46484,0.726562 -0.12891,0 -0.22266,0 -0.22266,0.199219 0,0 0,0.105469 0.12891,0.105469 0.30468,0 0.63281,-0.03516 0.9375,-0.03516 0.36328,0 0.76171,0.03516 1.11328,0.03516 0.0586,0 0.17578,0 0.17578,-0.199219 0,-0.105469 -0.0937,-0.105469 -0.11719,-0.105469 -0.082,-0.01172 -0.39844,-0.03516 -0.39844,-0.316406 0,-0.152344 0.15235,-0.316406 0.26953,-0.445312 l 1.01954,-1.078125 0.89062,-0.972657 1.00781,2.378907 c 0.0469,0.105468 0.0469,0.117187 0.0469,0.140625 0,0.08203 -0.1875,0.246093 -0.57422,0.292968 -0.10547,0 -0.19922,0.01172 -0.19922,0.1875 0,0.117188 0.11719,0.117188 0.15234,0.117188 0.28125,0 0.97266,-0.03516 1.25391,-0.03516 0.24609,0 0.85547,0.03516 1.10156,0.03516 0.0703,0 0.19922,0 0.19922,-0.1875 0,-0.117188 -0.10547,-0.117188 -0.1875,-0.117188 -0.66797,-0.01172 -0.67969,-0.04687 -0.85547,-0.445312 -0.38672,-0.925781 -1.05468,-2.472656 -1.28906,-3.070313 0.67969,-0.703125 1.73438,-1.886718 2.05078,-2.167968 0.28125,-0.234375 0.66797,-0.480469 1.26563,-0.503907 0.1289,-0.01172 0.21093,-0.01172 0.21093,-0.199218 0,-0.01172 0,-0.117188 -0.1289,-0.117188 -0.29297,0 -0.6211,0.03516 -0.9375,0.03516 -0.36328,0 -0.73828,-0.03516 -1.10156,-0.03516 -0.0586,0 -0.1875,0 -0.1875,0.199219 0,0.07031 0.0469,0.105469 0.11718,0.117187 0.0937,0.01172 0.39844,0.02344 0.39844,0.304688 0,0.140625 -0.10547,0.269531 -0.1875,0.363281 z m 0,0"
         style="fill:#000000;fill-opacity:1;fill-rule:nonzero;stroke:none" />
    </g>
  </g>
</svg>
